<mxfile host="app.diagrams.net" modified="2023-08-28T19:39:02.262Z" agent="Mozilla/5.0 (Windows NT 10.0; Win64; x64) AppleWebKit/537.36 (KHTML, like Gecko) Chrome/114.0.0.0 Safari/537.36 OPR/100.0.0.0" etag="_qj3UwIoAlkajmhCM7eF" version="21.6.9" type="github">
  <diagram id="R2lEEEUBdFMjLlhIrx00" name="Page-1">
    <mxGraphModel dx="839" dy="454" grid="1" gridSize="10" guides="1" tooltips="1" connect="1" arrows="1" fold="1" page="1" pageScale="1" pageWidth="850" pageHeight="1100" math="0" shadow="0" extFonts="Permanent Marker^https://fonts.googleapis.com/css?family=Permanent+Marker">
      <root>
        <mxCell id="0" />
        <mxCell id="1" parent="0" />
        <mxCell id="Mi5zR_FFfNBubvemiOj0-6" style="edgeStyle=orthogonalEdgeStyle;rounded=0;orthogonalLoop=1;jettySize=auto;html=1;entryX=0;entryY=0.5;entryDx=0;entryDy=0;" edge="1" parent="1" source="Mi5zR_FFfNBubvemiOj0-1" target="Mi5zR_FFfNBubvemiOj0-5">
          <mxGeometry relative="1" as="geometry" />
        </mxCell>
        <mxCell id="Mi5zR_FFfNBubvemiOj0-1" value="Escola" style="rounded=0;whiteSpace=wrap;html=1;" vertex="1" parent="1">
          <mxGeometry x="30" y="90" width="120" height="60" as="geometry" />
        </mxCell>
        <mxCell id="Mi5zR_FFfNBubvemiOj0-12" style="edgeStyle=orthogonalEdgeStyle;rounded=0;orthogonalLoop=1;jettySize=auto;html=1;entryX=1;entryY=0.5;entryDx=0;entryDy=0;" edge="1" parent="1" source="Mi5zR_FFfNBubvemiOj0-2" target="Mi5zR_FFfNBubvemiOj0-9">
          <mxGeometry relative="1" as="geometry" />
        </mxCell>
        <mxCell id="Mi5zR_FFfNBubvemiOj0-2" value="Professor" style="rounded=0;whiteSpace=wrap;html=1;" vertex="1" parent="1">
          <mxGeometry x="730" y="90" width="120" height="60" as="geometry" />
        </mxCell>
        <mxCell id="Mi5zR_FFfNBubvemiOj0-7" style="edgeStyle=orthogonalEdgeStyle;rounded=0;orthogonalLoop=1;jettySize=auto;html=1;exitX=0;exitY=0.5;exitDx=0;exitDy=0;entryX=1;entryY=0.5;entryDx=0;entryDy=0;" edge="1" parent="1" source="Mi5zR_FFfNBubvemiOj0-3" target="Mi5zR_FFfNBubvemiOj0-5">
          <mxGeometry relative="1" as="geometry" />
        </mxCell>
        <mxCell id="Mi5zR_FFfNBubvemiOj0-11" style="edgeStyle=orthogonalEdgeStyle;rounded=0;orthogonalLoop=1;jettySize=auto;html=1;entryX=0.5;entryY=0;entryDx=0;entryDy=0;" edge="1" parent="1" source="Mi5zR_FFfNBubvemiOj0-3" target="Mi5zR_FFfNBubvemiOj0-8">
          <mxGeometry relative="1" as="geometry" />
        </mxCell>
        <mxCell id="Mi5zR_FFfNBubvemiOj0-13" style="edgeStyle=orthogonalEdgeStyle;rounded=0;orthogonalLoop=1;jettySize=auto;html=1;entryX=0;entryY=0.5;entryDx=0;entryDy=0;" edge="1" parent="1" source="Mi5zR_FFfNBubvemiOj0-3" target="Mi5zR_FFfNBubvemiOj0-9">
          <mxGeometry relative="1" as="geometry" />
        </mxCell>
        <mxCell id="Mi5zR_FFfNBubvemiOj0-3" value="Turmas" style="rounded=0;whiteSpace=wrap;html=1;" vertex="1" parent="1">
          <mxGeometry x="440" y="90" width="120" height="60" as="geometry" />
        </mxCell>
        <mxCell id="Mi5zR_FFfNBubvemiOj0-10" style="edgeStyle=orthogonalEdgeStyle;rounded=0;orthogonalLoop=1;jettySize=auto;html=1;entryX=0.5;entryY=1;entryDx=0;entryDy=0;" edge="1" parent="1" source="Mi5zR_FFfNBubvemiOj0-4" target="Mi5zR_FFfNBubvemiOj0-8">
          <mxGeometry relative="1" as="geometry" />
        </mxCell>
        <mxCell id="Mi5zR_FFfNBubvemiOj0-4" value="Salas" style="rounded=0;whiteSpace=wrap;html=1;" vertex="1" parent="1">
          <mxGeometry x="440" y="330" width="120" height="60" as="geometry" />
        </mxCell>
        <mxCell id="Mi5zR_FFfNBubvemiOj0-5" value="Tem" style="rhombus;whiteSpace=wrap;html=1;" vertex="1" parent="1">
          <mxGeometry x="270" y="80" width="80" height="80" as="geometry" />
        </mxCell>
        <mxCell id="Mi5zR_FFfNBubvemiOj0-8" value="Possuem" style="rhombus;whiteSpace=wrap;html=1;" vertex="1" parent="1">
          <mxGeometry x="460" y="200" width="80" height="80" as="geometry" />
        </mxCell>
        <mxCell id="Mi5zR_FFfNBubvemiOj0-9" value="HÃ¡" style="rhombus;whiteSpace=wrap;html=1;" vertex="1" parent="1">
          <mxGeometry x="610" y="80" width="80" height="80" as="geometry" />
        </mxCell>
      </root>
    </mxGraphModel>
  </diagram>
</mxfile>
